<?xml version="1.0" encoding="UTF-8"?>
<svg width="14px" height="15px" viewBox="0 0 14 15" version="1.1" xmlns="http://www.w3.org/2000/svg" xmlns:xlink="http://www.w3.org/1999/xlink">
    <title></title>
    <g id="POS" stroke="none" stroke-width="1" fill="none" fill-rule="evenodd">
        <g id="Settings-/-Hardware-/-Receipt-printers-(Empty)" transform="translate(-594.000000, -628.000000)" fill="#FFFFFF" fill-rule="nonzero">
            <g id="Group" transform="translate(546.000000, 610.000000)">
                <path d="M55,32.056 C56.216,32.056 57.3413333,31.752 58.376,31.144 C59.3786667,30.568 60.168,29.7786667 60.744,28.776 C61.352,27.7413333 61.656,26.616 61.656,25.4 C61.656,24.184 61.352,23.0586667 60.744,22.024 C60.168,21.0213333 59.3786667,20.232 58.376,19.656 C57.3413333,19.048 56.216,18.744 55,18.744 C53.7946667,18.744 52.6746667,19.048 51.64,19.656 C50.6373333,20.2426667 49.8426667,21.0373333 49.256,22.04 C48.648,23.0746667 48.344,24.1946667 48.344,25.4 C48.344,26.6053333 48.648,27.7253333 49.256,28.76 C49.832,29.7626667 50.6213333,30.5573333 51.624,31.144 C52.6586667,31.752 53.784,32.056 55,32.056 Z M55,30.744 C54.04,30.744 53.144,30.4986667 52.312,30.008 C51.5013333,29.5386667 50.8613333,28.8986667 50.392,28.088 C49.9013333,27.256 49.656,26.36 49.656,25.4 C49.656,24.44 49.9013333,23.544 50.392,22.712 C50.8613333,21.9013333 51.5013333,21.2613333 52.312,20.792 C53.144,20.3013333 54.04,20.056 55,20.056 C55.96,20.056 56.856,20.3013333 57.688,20.792 C58.4986667,21.2613333 59.1386667,21.9013333 59.608,22.712 C60.0986667,23.544 60.344,24.44 60.344,25.4 C60.344,26.36 60.0986667,27.256 59.608,28.088 C59.1386667,28.8986667 58.4986667,29.5386667 57.688,30.008 C56.856,30.4986667 55.96,30.744 55,30.744 Z M55.656,28.744 L55.656,26.056 L58.344,26.056 L58.344,24.744 L55.656,24.744 L55.656,22.056 L54.344,22.056 L54.344,24.744 L51.656,24.744 L51.656,26.056 L54.344,26.056 L54.344,28.744 L55.656,28.744 Z" id=""></path>
            </g>
        </g>
    </g>
</svg>