<?xml version="1.0" encoding="UTF-8"?>
<svg width="16px" height="16px" viewBox="0 0 16 16" version="1.1" xmlns="http://www.w3.org/2000/svg" xmlns:xlink="http://www.w3.org/1999/xlink">
    <title></title>
    <g id="POS" stroke="none" stroke-width="1" fill="none" fill-rule="evenodd">
        <g id="Settings-/-Hardware-/-Receipt-printers" transform="translate(-911.000000, -18.000000)" fill="#7CE7AC" fill-rule="nonzero">
            <path d="M919,33.188 C920.368,33.188 921.634,32.846 922.798,32.162 C923.926,31.514 924.814,30.626 925.462,29.498 C926.146,28.334 926.488,27.068 926.488,25.7 C926.488,24.332 926.146,23.066 925.462,21.902 C924.814,20.774 923.926,19.886 922.798,19.238 C921.634,18.554 920.368,18.212 919,18.212 C917.644,18.212 916.384,18.554 915.22,19.238 C914.092,19.898 913.198,20.792 912.538,21.92 C911.854,23.084 911.512,24.344 911.512,25.7 C911.512,27.056 911.854,28.316 912.538,29.48 C913.186,30.608 914.074,31.502 915.202,32.162 C916.366,32.846 917.632,33.188 919,33.188 Z M919,31.712 C917.92,31.712 916.912,31.436 915.976,30.884 C915.064,30.356 914.344,29.636 913.816,28.724 C913.264,27.788 912.988,26.78 912.988,25.7 C912.988,24.62 913.264,23.612 913.816,22.676 C914.344,21.764 915.064,21.044 915.976,20.516 C916.912,19.964 917.92,19.688 919,19.688 C920.08,19.688 921.088,19.964 922.024,20.516 C922.936,21.044 923.656,21.764 924.184,22.676 C924.736,23.612 925.012,24.62 925.012,25.7 C925.012,26.78 924.736,27.788 924.184,28.724 C923.656,29.636 922.936,30.356 922.024,30.884 C921.088,31.436 920.08,31.712 919,31.712 Z M919.738,29.462 L919.738,26.438 L922.762,26.438 L922.762,24.962 L919.738,24.962 L919.738,21.938 L918.262,21.938 L918.262,24.962 L915.238,24.962 L915.238,26.438 L918.262,26.438 L918.262,29.462 L919.738,29.462 Z" id=""></path>
        </g>
    </g>
</svg>