<?xml version="1.0" encoding="UTF-8"?>
<svg width="12px" height="9px" viewBox="0 0 12 9" version="1.1" xmlns="http://www.w3.org/2000/svg" xmlns:xlink="http://www.w3.org/1999/xlink">
    <title></title>
    <g id="POS" stroke="none" stroke-width="1" fill="none" fill-rule="evenodd">
        <g id="Purchases-/-Popover" transform="translate(-865.000000, -166.000000)" fill="#7CE7AC" fill-rule="nonzero">
            <g id="Group-2" transform="translate(854.000000, 35.000000)">
                <path d="M18.176,132.776 L18.176,131.6 L11.176,131.6 L11.176,132.776 L18.176,132.776 Z M20.5,139.776 L20.5,137.424 L22.824,137.424 L22.824,136.276 L20.5,136.276 L20.5,133.924 L19.324,133.924 L19.324,136.276 L17,136.276 L17,137.424 L19.324,137.424 L19.324,139.776 L20.5,139.776 Z M18.176,135.1 L18.176,133.924 L11.176,133.924 L11.176,135.1 L18.176,135.1 Z M15.824,137.424 L15.824,136.276 L11.176,136.276 L11.176,137.424 L15.824,137.424 Z" id=""></path>
            </g>
        </g>
    </g>
</svg>