<?xml version="1.0" encoding="UTF-8"?>
<svg width="14px" height="14px" viewBox="0 0 14 14" version="1.1" xmlns="http://www.w3.org/2000/svg" xmlns:xlink="http://www.w3.org/1999/xlink">
    <title></title>
    <g id="POS" stroke="none" stroke-width="1" fill="none" fill-rule="evenodd">
        <g id="POS-/-Purchase-history-/-Purchase-details" transform="translate(-273.000000, -1040.000000)" fill="#7CE7AC" fill-rule="nonzero">
            <g id="Popup" transform="translate(252.000000, 60.000000)">
                <g id="Title" transform="translate(0.000000, 10.000000)">
                    <path d="M21.344,984.056 L24,981.4 L33.344,981.4 C33.7066667,981.4 34.016,981.266667 34.272,981 C34.528,980.733333 34.656,980.418667 34.656,980.056 L34.656,980.056 L34.656,972.056 C34.656,971.693333 34.528,971.384 34.272,971.128 C34.016,970.872 33.7066667,970.744 33.344,970.744 L33.344,970.744 L22.656,970.744 C22.2933333,970.744 21.984,970.872 21.728,971.128 C21.472,971.384 21.344,971.693333 21.344,972.056 L21.344,972.056 L21.344,984.056 Z M32,974.744 L26.656,974.744 L26.656,973.4 L32,973.4 L32,974.744 Z M25.344,974.744 L24,974.744 L24,973.4 L25.344,973.4 L25.344,974.744 Z M32,976.744 L26.656,976.744 L26.656,975.4 L32,975.4 L32,976.744 Z M25.344,976.744 L24,976.744 L24,975.4 L25.344,975.4 L25.344,976.744 Z M30,978.744 L26.656,978.744 L26.656,977.4 L30,977.4 L30,978.744 Z M25.344,978.744 L24,978.744 L24,977.4 L25.344,977.4 L25.344,978.744 Z" id=""></path>
                </g>
            </g>
        </g>
    </g>
</svg>