<?xml version="1.0" encoding="UTF-8"?>
<svg width="13px" height="14px" viewBox="0 0 13 14" version="1.1" xmlns="http://www.w3.org/2000/svg" xmlns:xlink="http://www.w3.org/1999/xlink">
    <title></title>
    <g id="POS" stroke="none" stroke-width="1" fill="none" fill-rule="evenodd">
        <g id="POS-/-Edit-customer" transform="translate(-733.000000, -303.000000)" fill="#98A9BC" fill-rule="nonzero">
            <g id="Popup" transform="translate(252.000000, 60.000000)">
                <g id="Title" transform="translate(0.000000, 10.000000)">
                    <path d="M493.000014,247.000002 C493.54689,247.000002 494.000015,246.546877 494.000015,246.000001 L494.000015,235.999986 C494.000015,235.453114 493.54689,234.999986 493.000014,234.999986 L492.000013,234.999986 L492.000013,234.249987 C492.000013,233.562486 491.437512,232.999986 490.750012,232.999986 L490.250011,232.999986 C489.56251,232.999986 489,233.562486 489,234.249987 L489,234.999986 L486,234.999986 L486,234.249987 C486,233.562486 485.437505,232.999986 484.750004,232.999986 L484.250004,232.999986 C483.562503,232.999986 483,233.562486 483,234.249987 L483,234.999986 L482,234.999986 C481.453126,234.999986 481,235.453114 481,235.999986 L481,246.000001 C481,246.546877 481.453126,247.000002 482,247.000002 L493.000014,247.000002 Z M484.750004,236.74999 L484.250004,236.74999 C484.109379,236.74999 484.000004,236.640615 484.000004,236.499987 L484.000004,234.249987 C484.000004,234.109362 484.109379,233.999987 484.250004,233.999987 L484.750004,233.999987 C484.89063,233.999987 485.000004,234.109362 485.000004,234.249987 L485.000004,236.499987 C485.000004,236.640615 484.89063,236.74999 484.750004,236.74999 Z M490.750012,236.74999 L490.250011,236.74999 C490.109386,236.74999 490.000011,236.640615 490.000011,236.499987 L490.000011,234.249987 C490.000011,234.109362 490.109386,233.999987 490.250011,233.999987 L490.750012,233.999987 C490.890637,233.999987 491.000011,234.109362 491.000011,234.249987 L491.000011,236.499987 C491.000011,236.640615 490.890637,236.74999 490.750012,236.74999 Z M493.000014,245.999992 L482.000001,245.999992 L482.000001,237.999992 L493.000014,237.999992 L493.000014,245.999992 Z" id=""></path>
                </g>
            </g>
        </g>
    </g>
</svg>