<?xml version="1.0" encoding="UTF-8"?>
<svg width="16px" height="12px" viewBox="0 0 16 12" version="1.1" xmlns="http://www.w3.org/2000/svg" xmlns:xlink="http://www.w3.org/1999/xlink">
    <title></title>
    <g id="POS" stroke="none" stroke-width="1" fill="none" fill-rule="evenodd">
        <g id="POS-/-Checkout-(LBP)-/-Cash" transform="translate(-334.000000, -474.000000)" fill="#FFFFFF" fill-rule="nonzero">
            <g id="Group" transform="translate(334.000000, 470.000000)">
                <path d="M14.875,15.984375 C15.1875,15.984375 15.453125,15.8723958 15.671875,15.6484375 C15.890625,15.4244792 16,15.1614583 16,14.859375 L16,5.15625 C16,4.84375 15.890625,4.578125 15.671875,4.359375 C15.453125,4.140625 15.1875,4.03125 14.875,4.03125 L1.125,4.03125 C0.8125,4.03125 0.546875,4.140625 0.328125,4.359375 C0.109375,4.578125 0,4.84375 0,5.15625 L0,14.859375 C0,15.1614583 0.109375,15.4244792 0.328125,15.6484375 C0.546875,15.8723958 0.8125,15.984375 1.125,15.984375 L14.875,15.984375 Z M14.875,7.03125 L1.125,7.03125 L1.125,5.15625 L14.875,5.15625 L14.875,7.03125 Z M14.875,14.859375 L1.125,14.859375 L1.125,8.53125 L14.875,8.53125 L14.875,14.859375 Z M3.703125,13 C3.890625,13 4.05208333,12.9322917 4.1875,12.796875 C4.32291667,12.6614583 4.390625,12.5 4.390625,12.3125 C4.390625,12.125 4.32291667,11.9635417 4.1875,11.828125 C4.05208333,11.6927083 3.890625,11.625 3.703125,11.625 C3.515625,11.625 3.35416667,11.6927083 3.21875,11.828125 C3.08333333,11.9635417 3.015625,12.125 3.015625,12.3125 C3.015625,12.5 3.08333333,12.6614583 3.21875,12.796875 C3.35416667,12.9322917 3.515625,13 3.703125,13 Z M6.3125,13 C6.5,13 6.66145833,12.9322917 6.796875,12.796875 C6.93229167,12.6614583 7,12.5 7,12.3125 C7,12.125 6.93229167,11.9635417 6.796875,11.828125 C6.66145833,11.6927083 6.5,11.625 6.3125,11.625 C6.11458333,11.625 5.95052083,11.6927083 5.8203125,11.828125 C5.69010417,11.9635417 5.625,12.125 5.625,12.3125 C5.625,12.5 5.69010417,12.6614583 5.8203125,12.796875 C5.95052083,12.9322917 6.11458333,13 6.3125,13 Z" id=""></path>
            </g>
        </g>
    </g>
</svg>