<?xml version="1.0" encoding="UTF-8"?>
<svg width="18px" height="14px" viewBox="0 0 18 14" version="1.1" xmlns="http://www.w3.org/2000/svg" xmlns:xlink="http://www.w3.org/1999/xlink">
    <title> copy</title>
    <g id="POS" stroke="none" stroke-width="1" fill="none" fill-rule="evenodd">
        <g id="POS-/-Sidenav" transform="translate(-17.000000, -463.000000)" fill="#7CE7AC" fill-rule="nonzero">
            <g id="Kanban" transform="translate(17.000000, 463.000000)">
                <path d="M17.25,14 L17.25,0.25 L0.75,0.25 L0.75,14 L17.25,14 Z M5.5625,4.375 L2.125,4.375 L2.125,1.625 L5.5625,1.625 L5.5625,4.375 Z M15.875,4.375 L6.9375,4.375 L6.9375,1.625 L15.875,1.625 L15.875,4.375 Z M5.5625,8.5 L2.125,8.5 L2.125,5.75 L5.5625,5.75 L5.5625,8.5 Z M15.875,8.5 L6.9375,8.5 L6.9375,5.75 L15.875,5.75 L15.875,8.5 Z M5.5625,12.625 L2.125,12.625 L2.125,9.875 L5.5625,9.875 L5.5625,12.625 Z M15.875,12.625 L6.9375,12.625 L6.9375,9.875 L15.875,9.875 L15.875,12.625 Z" id="-copy"></path>
            </g>
        </g>
    </g>
</svg>