<?xml version="1.0" encoding="UTF-8"?>
<svg width="18px" height="12px" viewBox="0 0 18 12" version="1.1" xmlns="http://www.w3.org/2000/svg" xmlns:xlink="http://www.w3.org/1999/xlink">
    <title></title>
    <g id="POS" stroke="none" stroke-width="1" fill="none" fill-rule="evenodd">
        <g id="POS-/-Checkout-(LBP)-/-Cash" transform="translate(-790.000000, -288.000000)" fill="#FFFFFF" fill-rule="nonzero">
            <g id="Group-2" transform="translate(790.000000, 284.000000)">
                <path d="M16.5714483,16 C16.8839487,16 17.1428776,15.7410711 17.1428776,15.4285707 L17.1428776,5.1428442 C17.1428776,4.83034383 16.8839487,4.57141495 16.5714483,4.57141495 L0.571429253,4.57141495 C0.25892888,4.57141495 0,4.83034383 0,5.1428442 L0,15.4285707 C0,15.7410711 0.25892888,16 0.571429253,16 L16.5714483,16 Z M13.7143021,14.8571415 L3.42857552,14.8571415 C3.42857552,13.5982114 2.40178858,12.5714245 1.14285851,12.5714245 L1.14285851,7.99999046 C2.40178858,7.99999046 3.42857552,6.97320352 3.42857552,5.71427345 L13.7143021,5.71427345 C13.7143021,6.97320352 14.741089,7.99999046 16.0000191,7.99999046 L16.0000191,12.5714245 C14.741089,12.5714245 13.7143021,13.5982114 13.7143021,14.8571415 Z M8.57143879,13.9999976 C10.446441,13.9999976 11.4285851,11.9107094 11.4285851,10.2857075 C11.4285851,8.66070554 10.446441,6.57141733 8.57143879,6.57141733 C6.69643655,6.57141733 5.71429253,8.66070554 5.71429253,10.2857075 C5.71429253,11.9107094 6.69643655,13.9999976 8.57143879,13.9999976 Z M10.2857265,12.5714245 L6.85715103,12.5714245 L6.85715103,11.7142758 L8.00000954,11.7142758 L8.00000954,9.14284897 L7.98215237,9.14284897 C7.83929506,9.36606352 7.70536633,9.46427792 7.49108036,9.65177815 L6.80357954,8.93749158 L8.12500969,7.71427584 L9.14286804,7.71427584 L9.14286804,11.7142758 L10.2857265,11.7142758 L10.2857265,12.5714245 Z" id=""></path>
            </g>
        </g>
    </g>
</svg>