<?xml version="1.0" encoding="UTF-8"?>
<svg width="14px" height="14px" viewBox="0 0 14 14" version="1.1" xmlns="http://www.w3.org/2000/svg" xmlns:xlink="http://www.w3.org/1999/xlink">
    <title></title>
    <g id="POS" stroke="none" stroke-width="1" fill="none" fill-rule="evenodd">
        <g id="POS-/-Checkout-(LBP)-/-Cash-Complete" transform="translate(-587.000000, -383.000000)" fill="#FFFFFF" fill-rule="nonzero">
            <g id="Group" transform="translate(587.000000, 380.000000)">
                <path d="M7,16.5 C8.79166667,16.5 10.3229167,15.8645833 11.59375,14.59375 C12.8645833,13.3229167 13.5,11.7916667 13.5,10 L13.5,10 L12.1875,10 C12.1875,11.4375 11.6822917,12.6614583 10.671875,13.671875 C9.66145833,14.6822917 8.4375,15.1875 7,15.1875 C5.5625,15.1875 4.33854167,14.6822917 3.328125,13.671875 C2.31770833,12.6614583 1.8125,11.4375 1.8125,10 C1.8125,8.5625 2.31770833,7.33854167 3.328125,6.328125 C4.33854167,5.31770833 5.5625,4.8125 7,4.8125 C7.5,4.8125 7.97916667,4.875 8.4375,5 L8.4375,5 L9.4375,4 C8.64583333,3.66666667 7.83333333,3.5 7,3.5 C5.20833333,3.5 3.67708333,4.13541667 2.40625,5.40625 C1.13541667,6.67708333 0.5,8.20833333 0.5,10 C0.5,11.7916667 1.13541667,13.3229167 2.40625,14.59375 C3.67708333,15.8645833 5.20833333,16.5 7,16.5 Z M6.34375,12.59375 L12.84375,6.09375 L11.9375,5.1875 L6.34375,10.75 L4.34375,8.75 L3.4375,9.6875 L6.34375,12.59375 Z" id=""></path>
            </g>
        </g>
    </g>
</svg>