<?xml version="1.0" encoding="UTF-8"?>
<svg width="14px" height="15px" viewBox="0 0 14 15" version="1.1" xmlns="http://www.w3.org/2000/svg" xmlns:xlink="http://www.w3.org/1999/xlink">
    <title></title>
    <g id="POS" stroke="none" stroke-width="1" fill="none" fill-rule="evenodd">
        <g id="POS-/-Checkout-/-Split-payment-step-3" transform="translate(-589.000000, -383.000000)" fill="#FFFFFF" fill-rule="nonzero">
            <g id="Group" transform="translate(589.000000, 380.000000)">
                <path d="M7.00000817,17.1428585 C10.785727,17.1428585 13.8571592,14.0714263 13.8571592,10.2857075 C13.8571592,6.49998868 10.785727,3.42855644 7.00000817,3.42855644 C3.21428938,3.42855644 0.142857143,6.49998868 0.142857143,10.2857075 C0.142857143,14.0714263 3.21428938,17.1428585 7.00000817,17.1428585 Z M7.00000817,15.1428561 C4.32143355,15.1428561 2.14285953,12.9642821 2.14285953,10.2857075 C2.14285953,7.60713285 4.32143355,5.42855883 7.00000817,5.42855883 C9.6785828,5.42855883 11.8571568,7.60713285 11.8571568,10.2857075 C11.8571568,12.9642821 9.6785828,15.1428561 7.00000817,15.1428561 Z M7.2857228,13.4285684 C7.35715146,13.4285684 7.4375087,13.4017826 7.49108019,13.3482111 L10.3482265,10.4910649 C10.4017979,10.4374934 10.4285837,10.3571361 10.4285837,10.2857075 C10.4285837,10.2142788 10.4017979,10.1339216 10.3482265,10.0803501 L7.50000877,7.23213241 C7.4375087,7.17856091 7.36608004,7.14284658 7.2857228,7.14284658 C7.12500832,7.14284658 7.00000817,7.26784673 7.00000817,7.42856121 L7.00000817,9.14284658 L3.85714728,9.14284658 C3.70536139,9.14284658 3.57143266,9.2767777 3.57143266,9.42856359 L3.57143266,11.1428466 C3.57143266,11.2946372 3.70536139,11.428566 3.85714728,11.428566 L7.00000817,11.428566 L7.00000817,13.1428466 C7.00000817,13.2946396 7.13393691,13.4285684 7.2857228,13.4285684 Z" id=""></path>
            </g>
        </g>
    </g>
</svg>