<?xml version="1.0" encoding="UTF-8"?>
<svg width="18px" height="17px" viewBox="0 0 18 17" version="1.1" xmlns="http://www.w3.org/2000/svg" xmlns:xlink="http://www.w3.org/1999/xlink">
    <title> copy</title>
    <g id="POS" stroke="none" stroke-width="1" fill="none" fill-rule="evenodd">
        <g id="POS-/-Sidenav" transform="translate(-17.000000, -501.000000)" fill="#7CE7AC" fill-rule="nonzero">
            <g id="Contacts" transform="translate(17.000000, 501.000000)">
                <path d="M9,16.6875 C9.80208333,16.6875 10.5755208,16.4583333 11.3203125,16 L11.3203125,16 L17.9375,16 L17.9375,15.3125 C17.9375,10.3854167 17.1067708,6.8046875 15.4453125,4.5703125 C14.4427083,3.25260417 13.1966146,2.5078125 11.7070312,2.3359375 L11.7070312,2.3359375 L11.0625,1.21875 L10.890625,0.875 L10.4609375,0.875 C7.42447917,0.875 5.10416667,1.69140625 3.5,3.32421875 C1.20833333,5.61588542 0.0625,9.61197917 0.0625,15.3125 L0.0625,15.3125 L0.0625,16 L6.6796875,16 C7.42447917,16.4583333 8.19791667,16.6875 9,16.6875 Z M9,15.3125 C7.8828125,15.3125 6.90885417,14.7109375 6.078125,13.5078125 C5.27604167,12.3619792 4.875,11.1302083 4.875,9.8125 C4.875,9.5546875 4.93229167,9.35416667 5.046875,9.2109375 C5.1328125,9.09635417 5.29036458,8.99609375 5.51953125,8.91015625 C5.86328125,8.76692708 6.59375,8.65234375 7.7109375,8.56640625 C8.88541667,8.48046875 9.74479167,8.30859375 10.2890625,8.05078125 C11.2630208,7.59244792 11.75,6.8046875 11.75,5.6875 L11.75,5.6875 L10.375,5.6875 C10.375,6.03125 10.3248698,6.27473958 10.2246094,6.41796875 C10.124349,6.56119792 9.9453125,6.69010417 9.6875,6.8046875 C9.34375,6.9765625 8.62760417,7.10546875 7.5390625,7.19140625 C6.30729167,7.30598958 5.46223958,7.44921875 5.00390625,7.62109375 C4.54557292,7.79296875 4.1875,8.05078125 3.9296875,8.39453125 C3.64322917,8.76692708 3.5,9.23958333 3.5,9.8125 C3.5,11.4166667 3.98697917,12.90625 4.9609375,14.28125 C5.046875,14.4244792 5.1328125,14.5390625 5.21875,14.625 L5.21875,14.625 L1.48046875,14.625 C1.56640625,9.640625 2.5546875,6.203125 4.4453125,4.3125 C5.70572917,3.0234375 7.58203125,2.35026042 10.0742188,2.29296875 L10.0742188,2.29296875 L10.6328125,3.28125 L10.8046875,3.625 L11.234375,3.625 C12.4088542,3.625 13.4401042,4.2265625 14.328125,5.4296875 C15.703125,7.234375 16.4335938,10.2994792 16.5195312,14.625 L16.5195312,14.625 L12.8242188,14.625 C12.8528646,14.5963542 12.9244792,14.4960938 13.0390625,14.3242188 C14.0130208,12.9205729 14.5,11.4166667 14.5,9.8125 L14.5,9.8125 L13.125,9.8125 C13.125,11.1588542 12.7239583,12.390625 11.921875,13.5078125 C11.0911458,14.7109375 10.1171875,15.3125 9,15.3125 Z M6.9375,11.1875 C7.13802083,11.1875 7.30273438,11.1230469 7.43164062,10.9941406 C7.56054688,10.8652344 7.625,10.7005208 7.625,10.5 C7.625,10.2994792 7.56054688,10.1347656 7.43164062,10.0058594 C7.30273438,9.87695312 7.13802083,9.8125 6.9375,9.8125 C6.73697917,9.8125 6.56510417,9.88411458 6.421875,10.0273438 C6.30729167,10.1419271 6.25,10.2994792 6.25,10.5 C6.25,10.7005208 6.31445312,10.8652344 6.44335938,10.9941406 C6.57226562,11.1230469 6.73697917,11.1875 6.9375,11.1875 Z M11.0625,11.1875 C11.2630208,11.1875 11.4277344,11.1230469 11.5566406,10.9941406 C11.6855469,10.8652344 11.75,10.7005208 11.75,10.5 C11.75,10.2994792 11.6855469,10.1347656 11.5566406,10.0058594 C11.4277344,9.87695312 11.2630208,9.8125 11.0625,9.8125 C10.8619792,9.8125 10.6901042,9.88411458 10.546875,10.0273438 C10.4322917,10.1419271 10.375,10.2994792 10.375,10.5 C10.375,10.7005208 10.4394531,10.8652344 10.5683594,10.9941406 C10.6972656,11.1230469 10.8619792,11.1875 11.0625,11.1875 Z" id="-copy"></path>
            </g>
        </g>
    </g>
</svg>