<?xml version="1.0" encoding="UTF-8"?>
<svg width="12px" height="12px" viewBox="0 0 12 12" version="1.1" xmlns="http://www.w3.org/2000/svg" xmlns:xlink="http://www.w3.org/1999/xlink">
    <title></title>
    <g id="POS" stroke="none" stroke-width="1" fill="none" fill-rule="evenodd">
        <g id="POS-/-Checkout" transform="translate(-1001.000000, -64.000000)" fill="#7CE7AC" fill-rule="nonzero">
            <path d="M1007,75.924 C1008.064,75.924 1009.04867,75.658 1009.954,75.126 C1010.83133,74.622 1011.522,73.9313333 1012.026,73.054 C1012.558,72.1486667 1012.824,71.164 1012.824,70.1 C1012.824,69.036 1012.558,68.0513333 1012.026,67.146 C1011.522,66.2686667 1010.83133,65.578 1009.954,65.074 C1009.04867,64.542 1008.064,64.276 1007,64.276 C1005.94533,64.276 1004.96533,64.542 1004.06,65.074 C1003.18267,65.5873333 1002.48733,66.2826667 1001.974,67.16 C1001.442,68.0653333 1001.176,69.0453333 1001.176,70.1 C1001.176,71.1546667 1001.442,72.1346667 1001.974,73.04 C1002.478,73.9173333 1003.16867,74.6126667 1004.046,75.126 C1004.95133,75.658 1005.936,75.924 1007,75.924 Z M1007,74.776 C1006.16,74.776 1005.376,74.5613333 1004.648,74.132 C1003.93867,73.7213333 1003.37867,73.1613333 1002.968,72.452 C1002.53867,71.724 1002.324,70.94 1002.324,70.1 C1002.324,69.26 1002.53867,68.476 1002.968,67.748 C1003.37867,67.0386667 1003.93867,66.4786667 1004.648,66.068 C1005.376,65.6386667 1006.16,65.424 1007,65.424 C1007.84,65.424 1008.624,65.6386667 1009.352,66.068 C1010.06133,66.4786667 1010.62133,67.0386667 1011.032,67.748 C1011.46133,68.476 1011.676,69.26 1011.676,70.1 C1011.676,70.94 1011.46133,71.724 1011.032,72.452 C1010.62133,73.1613333 1010.06133,73.7213333 1009.352,74.132 C1008.624,74.5613333 1007.84,74.776 1007,74.776 Z M1007.574,68.35 L1007.574,67.174 L1006.426,67.174 L1006.426,68.35 L1007.574,68.35 Z M1007.574,73.026 L1007.574,69.526 L1006.426,69.526 L1006.426,73.026 L1007.574,73.026 Z" id=""></path>
        </g>
    </g>
</svg>