<?xml version="1.0" encoding="UTF-8"?>
<svg width="18px" height="17px" viewBox="0 0 18 17" version="1.1" xmlns="http://www.w3.org/2000/svg" xmlns:xlink="http://www.w3.org/1999/xlink">
    <title></title>
    <g id="POS" stroke="none" stroke-width="1" fill="none" fill-rule="evenodd">
        <g id="POS-/-Sidenav" transform="translate(-57.000000, -504.000000)" fill="#778CA2" fill-rule="nonzero">
            <g id="Contacts" transform="translate(17.000000, 501.000000)">
                <path d="M49,19.6875 C49.8020833,19.6875 50.5755208,19.4583333 51.3203125,19 L51.3203125,19 L57.9375,19 L57.9375,18.3125 C57.9375,13.3854167 57.1067708,9.8046875 55.4453125,7.5703125 C54.4427083,6.25260417 53.1966146,5.5078125 51.7070312,5.3359375 L51.7070312,5.3359375 L51.0625,4.21875 L50.890625,3.875 L50.4609375,3.875 C47.4244792,3.875 45.1041667,4.69140625 43.5,6.32421875 C41.2083333,8.61588542 40.0625,12.6119792 40.0625,18.3125 L40.0625,18.3125 L40.0625,19 L46.6796875,19 C47.4244792,19.4583333 48.1979167,19.6875 49,19.6875 Z M49,18.3125 C47.8828125,18.3125 46.9088542,17.7109375 46.078125,16.5078125 C45.2760417,15.3619792 44.875,14.1302083 44.875,12.8125 C44.875,12.5546875 44.9322917,12.3541667 45.046875,12.2109375 C45.1328125,12.0963542 45.2903646,11.9960938 45.5195312,11.9101562 C45.8632812,11.7669271 46.59375,11.6523438 47.7109375,11.5664062 C48.8854167,11.4804688 49.7447917,11.3085938 50.2890625,11.0507812 C51.2630208,10.5924479 51.75,9.8046875 51.75,8.6875 L51.75,8.6875 L50.375,8.6875 C50.375,9.03125 50.3248698,9.27473958 50.2246094,9.41796875 C50.124349,9.56119792 49.9453125,9.69010417 49.6875,9.8046875 C49.34375,9.9765625 48.6276042,10.1054688 47.5390625,10.1914062 C46.3072917,10.3059896 45.4622396,10.4492188 45.0039062,10.6210938 C44.5455729,10.7929688 44.1875,11.0507812 43.9296875,11.3945312 C43.6432292,11.7669271 43.5,12.2395833 43.5,12.8125 C43.5,14.4166667 43.9869792,15.90625 44.9609375,17.28125 C45.046875,17.4244792 45.1328125,17.5390625 45.21875,17.625 L45.21875,17.625 L41.4804688,17.625 C41.5664062,12.640625 42.5546875,9.203125 44.4453125,7.3125 C45.7057292,6.0234375 47.5820312,5.35026042 50.0742188,5.29296875 L50.0742188,5.29296875 L50.6328125,6.28125 L50.8046875,6.625 L51.234375,6.625 C52.4088542,6.625 53.4401042,7.2265625 54.328125,8.4296875 C55.703125,10.234375 56.4335938,13.2994792 56.5195312,17.625 L56.5195312,17.625 L52.8242188,17.625 C52.8528646,17.5963542 52.9244792,17.4960938 53.0390625,17.3242188 C54.0130208,15.9205729 54.5,14.4166667 54.5,12.8125 L54.5,12.8125 L53.125,12.8125 C53.125,14.1588542 52.7239583,15.390625 51.921875,16.5078125 C51.0911458,17.7109375 50.1171875,18.3125 49,18.3125 Z M46.9375,14.1875 C47.1380208,14.1875 47.3027344,14.1230469 47.4316406,13.9941406 C47.5605469,13.8652344 47.625,13.7005208 47.625,13.5 C47.625,13.2994792 47.5605469,13.1347656 47.4316406,13.0058594 C47.3027344,12.8769531 47.1380208,12.8125 46.9375,12.8125 C46.7369792,12.8125 46.5651042,12.8841146 46.421875,13.0273438 C46.3072917,13.1419271 46.25,13.2994792 46.25,13.5 C46.25,13.7005208 46.3144531,13.8652344 46.4433594,13.9941406 C46.5722656,14.1230469 46.7369792,14.1875 46.9375,14.1875 Z M51.0625,14.1875 C51.2630208,14.1875 51.4277344,14.1230469 51.5566406,13.9941406 C51.6855469,13.8652344 51.75,13.7005208 51.75,13.5 C51.75,13.2994792 51.6855469,13.1347656 51.5566406,13.0058594 C51.4277344,12.8769531 51.2630208,12.8125 51.0625,12.8125 C50.8619792,12.8125 50.6901042,12.8841146 50.546875,13.0273438 C50.4322917,13.1419271 50.375,13.2994792 50.375,13.5 C50.375,13.7005208 50.4394531,13.8652344 50.5683594,13.9941406 C50.6972656,14.1230469 50.8619792,14.1875 51.0625,14.1875 Z" id=""></path>
            </g>
        </g>
    </g>
</svg>