<?xml version="1.0" encoding="UTF-8"?>
<svg width="12px" height="10px" viewBox="0 0 12 10" version="1.1" xmlns="http://www.w3.org/2000/svg" xmlns:xlink="http://www.w3.org/1999/xlink">
    <title></title>
    <g id="POS" stroke="none" stroke-width="1" fill="none" fill-rule="evenodd">
        <g id="Purchases-/-Popover" transform="translate(-865.000000, -105.000000)" fill="#7CE7AC" fill-rule="nonzero">
            <g id="Group-2" transform="translate(854.000000, 35.000000)">
                <path d="M21.676,79.776 C21.9933333,79.776 22.264,79.6593333 22.488,79.426 C22.712,79.1926667 22.824,78.9173333 22.824,78.6 L22.824,78.6 L22.824,71.6 C22.824,71.2826667 22.712,71.0073333 22.488,70.774 C22.264,70.5406667 21.9933333,70.424 21.676,70.424 L21.676,70.424 L12.324,70.424 C12.0066667,70.424 11.736,70.5406667 11.512,70.774 C11.288,71.0073333 11.176,71.2826667 11.176,71.6 L11.176,71.6 L11.176,78.6 C11.176,78.9173333 11.288,79.1926667 11.512,79.426 C11.736,79.6593333 12.0066667,79.776 12.324,79.776 L12.324,79.776 L21.676,79.776 Z M17,75.674 L12.324,72.776 L12.324,71.6 L17,74.526 L21.676,71.6 L21.676,72.776 L17,75.674 Z" id=""></path>
            </g>
        </g>
    </g>
</svg>