<?xml version="1.0" encoding="UTF-8"?>
<svg width="12px" height="10px" viewBox="0 0 12 10" version="1.1" xmlns="http://www.w3.org/2000/svg" xmlns:xlink="http://www.w3.org/1999/xlink">
    <title></title>
    <g id="Symbols" stroke="none" stroke-width="1" fill="none" fill-rule="evenodd">
        <g id="Popover-/-Paid-partial-Copy-2" transform="translate(-14.000000, -48.000000)" fill="#FFFFFF" fill-rule="nonzero">
            <path d="M24.5885,57.776 C24.9058333,57.776 25.1765,57.6593333 25.4005,57.426 C25.6245,57.1926667 25.7365,56.9173333 25.7365,56.6 L25.7365,56.6 L25.7365,49.6 C25.7365,49.2826667 25.6245,49.0073333 25.4005,48.774 C25.1765,48.5406667 24.9058333,48.424 24.5885,48.424 L24.5885,48.424 L15.2365,48.424 C14.9191667,48.424 14.6485,48.5406667 14.4245,48.774 C14.2005,49.0073333 14.0885,49.2826667 14.0885,49.6 L14.0885,49.6 L14.0885,56.6 C14.0885,56.9173333 14.2005,57.1926667 14.4245,57.426 C14.6485,57.6593333 14.9191667,57.776 15.2365,57.776 L15.2365,57.776 L24.5885,57.776 Z M19.9125,53.674 L15.2365,50.776 L15.2365,49.6 L19.9125,52.526 L24.5885,49.6 L24.5885,50.776 L19.9125,53.674 Z" id=""></path>
        </g>
    </g>
</svg>