<?xml version="1.0" encoding="UTF-8"?>
<svg width="68px" height="68px" viewBox="0 0 68 68" version="1.1" xmlns="http://www.w3.org/2000/svg" xmlns:xlink="http://www.w3.org/1999/xlink">
    <title></title>
    <g id="POS" stroke="none" stroke-width="1" fill="none" fill-rule="evenodd">
        <g id="Cash-management-/-Pay-in-/-Complete" transform="translate(-612.000000, -202.000000)" fill="#7CE7AC" fill-rule="nonzero">
            <path d="M646,269.5625 C655.182292,269.5625 663.029948,266.30599 669.542969,259.792969 C676.05599,253.279948 679.3125,245.432292 679.3125,236.25 L679.3125,236.25 L672.585938,236.25 C672.585938,243.617188 669.996745,249.889974 664.818359,255.068359 C659.639974,260.246745 653.367188,262.835938 646,262.835938 C638.632812,262.835938 632.360026,260.246745 627.181641,255.068359 C622.003255,249.889974 619.414062,243.617188 619.414062,236.25 C619.414062,228.882812 622.003255,222.610026 627.181641,217.431641 C632.360026,212.253255 638.632812,209.664062 646,209.664062 C648.5625,209.664062 651.018229,209.984375 653.367188,210.625 L653.367188,210.625 L658.492188,205.5 C654.434896,203.791667 650.270833,202.9375 646,202.9375 C636.817708,202.9375 628.970052,206.19401 622.457031,212.707031 C615.94401,219.220052 612.6875,227.067708 612.6875,236.25 C612.6875,245.432292 615.94401,253.279948 622.457031,259.792969 C628.970052,266.30599 636.817708,269.5625 646,269.5625 Z M642.636719,249.542969 L675.949219,216.230469 L671.304688,211.585938 L642.636719,240.09375 L632.386719,229.84375 L627.742188,234.648438 L642.636719,249.542969 Z" id=""></path>
        </g>
    </g>
</svg>