<?xml version="1.0" encoding="UTF-8"?>
<svg width="14px" height="14px" viewBox="0 0 14 14" version="1.1" xmlns="http://www.w3.org/2000/svg" xmlns:xlink="http://www.w3.org/1999/xlink">
    <title></title>
    <g id="POS" stroke="none" stroke-width="1" fill="none" fill-rule="evenodd">
        <g id="POS-/-Checkout-(USD)-/-Delivery" transform="translate(-607.000000, -287.000000)" fill="#FFFFFF" fill-rule="nonzero">
            <g id="Group" transform="translate(607.000000, 284.000000)">
                <path d="M7,17 C8.9375,17 10.5885417,16.3177083 11.953125,14.953125 C13.3177083,13.5885417 14,11.9375 14,10 C14,8.0625 13.3177083,6.41145833 11.953125,5.046875 C10.5885417,3.68229167 8.9375,3 7,3 C5.0625,3 3.40625,3.6875 2.03125,5.0625 C0.677083333,6.41666667 0,8.0625 0,10 C0,11.9375 0.682291667,13.5885417 2.046875,14.953125 C3.41145833,16.3177083 5.0625,17 7,17 Z M7.25,16 L7.25,15 L6.75,15 L6.75,16 C5.89583333,15.9791667 5.05208333,15.75 4.21875,15.3125 L4.21875,15.3125 L4.71875,14.46875 L4.28125,14.21875 L3.78125,15.0625 C3.42708333,14.8541667 3.08333333,14.5833333 2.75,14.25 C2.41666667,13.9166667 2.14583333,13.5729167 1.9375,13.21875 L1.9375,13.21875 L2.78125,12.71875 L2.53125,12.28125 L1.6875,12.78125 C1.25,11.9479167 1.02083333,11.1041667 1,10.25 L1,10.25 L2,10.25 L2,9.75 L1,9.75 C1.02083333,8.89583333 1.25,8.05208333 1.6875,7.21875 L1.6875,7.21875 L2.53125,7.71875 L2.78125,7.28125 L1.9375,6.78125 C2.14583333,6.42708333 2.41666667,6.08333333 2.75,5.75 C3.08333333,5.41666667 3.42708333,5.14583333 3.78125,4.9375 L3.78125,4.9375 L4.28125,5.78125 L4.71875,5.53125 L4.21875,4.6875 C5.05208333,4.25 5.89583333,4.02083333 6.75,4 L6.75,4 L6.75,5 L7.25,5 L7.25,4 C8.10416667,4.02083333 8.94791667,4.25 9.78125,4.6875 L9.78125,4.6875 L9.28125,5.53125 L9.71875,5.78125 L10.21875,4.9375 C10.5729167,5.14583333 10.9166667,5.41666667 11.25,5.75 C11.5833333,6.08333333 11.8541667,6.42708333 12.0625,6.78125 L12.0625,6.78125 L11.21875,7.28125 L11.46875,7.71875 L12.3125,7.21875 C12.75,8.05208333 12.9791667,8.89583333 13,9.75 L13,9.75 L12,9.75 L12,10.25 L13,10.25 C12.9791667,11.1041667 12.75,11.9479167 12.3125,12.78125 L12.3125,12.78125 L11.46875,12.28125 L11.21875,12.71875 L12.0625,13.21875 C11.8541667,13.5729167 11.5833333,13.9166667 11.25,14.25 C10.9166667,14.5833333 10.5729167,14.8541667 10.21875,15.0625 L10.21875,15.0625 L9.71875,14.21875 L9.28125,14.46875 L9.78125,15.3125 C8.94791667,15.75 8.10416667,15.9791667 7.25,16 L7.25,16 Z M7,11 C7.35416667,11 7.63541667,10.84375 7.84375,10.53125 L7.84375,10.53125 L11.5,10.53125 L11.5,9.53125 L7.875,9.53125 C7.77083333,9.34375 7.64583333,9.20833333 7.5,9.125 L7.5,9.125 L7.5,7 L6.5,7 L6.5,9.125 C6.16666667,9.33333333 6,9.625 6,10 C6,10.2916667 6.09375,10.53125 6.28125,10.71875 C6.46875,10.90625 6.70833333,11 7,11 Z" id=""></path>
            </g>
        </g>
    </g>
</svg>