<?xml version="1.0" encoding="UTF-8"?>
<svg width="14px" height="14px" viewBox="0 0 14 14" version="1.1" xmlns="http://www.w3.org/2000/svg" xmlns:xlink="http://www.w3.org/1999/xlink">
    <title></title>
    <g id="POS" stroke="none" stroke-width="1" fill="none" fill-rule="evenodd">
        <g id="POS-/-Checkout-(LBP)-/-Cash" transform="translate(-827.000000, -473.000000)" fill="#FFFFFF" fill-rule="nonzero">
            <g id="Group-Copy-2" transform="translate(827.000000, 470.000000)">
                <path d="M12.344,16.4 C12.7173333,16.4 13.0293333,16.2693333 13.28,16.008 C13.5306667,15.7466667 13.656,15.4293333 13.656,15.056 L13.656,15.056 L13.656,7.744 C13.656,7.37066667 13.5306667,7.05333333 13.28,6.792 C13.0293333,6.53066667 12.7173333,6.4 12.344,6.4 L12.344,6.4 L10.872,6.4 C10.9573333,6.10133333 11,5.88266667 11,5.744 C11,5.392 10.9093333,5.06133333 10.728,4.752 C10.5466667,4.44266667 10.3013333,4.19733333 9.992,4.016 C9.68266667,3.83466667 9.35466667,3.744 9.008,3.744 C8.66133333,3.744 8.344,3.82133333 8.056,3.976 C7.768,4.13066667 7.53333333,4.34666667 7.352,4.624 L7.352,4.624 L7,5.088 L6.664,4.624 C6.472,4.34666667 6.232,4.13066667 5.944,3.976 C5.656,3.82133333 5.33866667,3.744 4.992,3.744 C4.64533333,3.744 4.31733333,3.83466667 4.008,4.016 C3.69866667,4.19733333 3.45333333,4.44266667 3.272,4.752 C3.09066667,5.06133333 3,5.392 3,5.744 C3,5.88266667 3.04266667,6.10133333 3.128,6.4 L3.128,6.4 L1.656,6.4 C1.28266667,6.4 0.970666667,6.53066667 0.72,6.792 C0.469333333,7.05333333 0.344,7.37066667 0.344,7.744 L0.344,7.744 L0.344,15.056 C0.344,15.4293333 0.469333333,15.7466667 0.72,16.008 C0.970666667,16.2693333 1.28266667,16.4 1.656,16.4 L1.656,16.4 L12.344,16.4 Z M5,6.4 C4.81866667,6.4 4.664,6.33866667 4.536,6.216 C4.408,6.09333333 4.344,5.936 4.344,5.744 C4.344,5.552 4.408,5.38933333 4.536,5.256 C4.664,5.12266667 4.81866667,5.056 5,5.056 C5.18133333,5.056 5.336,5.12533333 5.464,5.264 C5.592,5.40266667 5.656,5.56266667 5.656,5.744 C5.656,5.92533333 5.592,6.08 5.464,6.208 C5.336,6.336 5.18133333,6.4 5,6.4 Z M9,6.4 C8.81866667,6.4 8.664,6.33866667 8.536,6.216 C8.408,6.09333333 8.344,5.936 8.344,5.744 C8.344,5.552 8.408,5.38933333 8.536,5.256 C8.664,5.12266667 8.81866667,5.056 9,5.056 C9.18133333,5.056 9.336,5.12533333 9.464,5.264 C9.592,5.40266667 9.656,5.56266667 9.656,5.744 C9.656,5.92533333 9.592,6.08 9.464,6.208 C9.336,6.336 9.18133333,6.4 9,6.4 Z M12.344,11.744 L1.656,11.744 L1.656,7.744 L5.064,7.744 L3.656,9.616 L4.744,10.4 L5.88,8.864 C6.33866667,8.24533333 6.712,7.73866667 7,7.344 C7.288,7.73866667 7.66133333,8.24533333 8.12,8.864 L8.12,8.864 L9.256,10.4 L10.344,9.616 L8.936,7.744 L12.344,7.744 L12.344,11.744 Z M12.344,15.056 L1.656,15.056 L1.656,13.744 L12.344,13.744 L12.344,15.056 Z" id=""></path>
            </g>
        </g>
    </g>
</svg>