<?xml version="1.0" encoding="UTF-8"?>
<svg width="18px" height="18px" viewBox="0 0 18 18" version="1.1" xmlns="http://www.w3.org/2000/svg" xmlns:xlink="http://www.w3.org/1999/xlink">
    <title></title>
    <g id="POS" stroke="none" stroke-width="1" fill="none" fill-rule="evenodd">
        <g id="POS-/-Sidenav" transform="translate(-57.000000, -384.000000)" fill="#778CA2" fill-rule="nonzero">
            <g id="Dashboard" transform="translate(17.000000, 373.000000)">
                <path d="M49,28.375 C51.2630208,28.375 53.203776,27.5657552 54.8222656,25.9472656 C56.4407552,24.328776 57.25,22.3880208 57.25,20.125 C57.25,17.8619792 56.4407552,15.921224 54.8222656,14.3027344 C53.203776,12.6842448 51.2630208,11.875 49,11.875 C46.7369792,11.875 44.7890625,12.6914062 43.15625,14.3242188 C41.5520833,15.9283854 40.75,17.8619792 40.75,20.125 C40.75,22.3880208 41.5592448,24.328776 43.1777344,25.9472656 C44.796224,27.5657552 46.7369792,28.375 49,28.375 Z M49,27 C47.109375,27 45.4908854,26.3268229 44.1445312,24.9804688 C42.7981771,23.6341146 42.125,22.015625 42.125,20.125 C42.125,18.234375 42.7981771,16.6158854 44.1445312,15.2695312 C45.4908854,13.9231771 47.109375,13.25 49,13.25 C50.890625,13.25 52.5091146,13.9231771 53.8554688,15.2695312 C55.2018229,16.6158854 55.875,18.234375 55.875,20.125 C55.875,22.015625 55.2018229,23.6341146 53.8554688,24.9804688 C52.5091146,26.3268229 50.890625,27 49,27 Z M49,15.3125 C49.2005208,15.3125 49.3652344,15.2480469 49.4941406,15.1191406 C49.6230469,14.9902344 49.6875,14.8255208 49.6875,14.625 C49.6875,14.4244792 49.6230469,14.2597656 49.4941406,14.1308594 C49.3652344,14.0019531 49.2005208,13.9375 49,13.9375 C48.7994792,13.9375 48.6276042,14.0091146 48.484375,14.1523438 C48.3697917,14.2669271 48.3125,14.4244792 48.3125,14.625 C48.3125,14.8255208 48.3769531,14.9902344 48.5058594,15.1191406 C48.6347656,15.2480469 48.7994792,15.3125 49,15.3125 Z M45.1113281,16.9453125 C45.297526,16.9453125 45.4622396,16.8736979 45.6054688,16.7304688 C45.7486979,16.5872396 45.8203125,16.422526 45.8203125,16.2363281 C45.8203125,16.0501302 45.7486979,15.8925781 45.6054688,15.7636719 C45.4622396,15.6347656 45.297526,15.5703125 45.1113281,15.5703125 C44.9251302,15.5703125 44.7604167,15.6419271 44.6171875,15.7851562 C44.5026042,15.8997396 44.4453125,16.0501302 44.4453125,16.2363281 C44.4453125,16.422526 44.5097656,16.5872396 44.6386719,16.7304688 C44.7675781,16.8736979 44.9251302,16.9453125 45.1113281,16.9453125 Z M49,21.5 C49.3723958,21.5 49.6946615,21.3639323 49.9667969,21.0917969 C50.2389323,20.8196615 50.375,20.4973958 50.375,20.125 C50.375,20.0104167 50.3606771,19.8958333 50.3320312,19.78125 L50.3320312,19.78125 L53.3828125,16.7304688 L52.3945312,15.7421875 L49.34375,18.7929688 C49.2291667,18.7643229 49.1145833,18.75 49,18.75 C48.6276042,18.75 48.3053385,18.8860677 48.0332031,19.1582031 C47.7610677,19.4303385 47.625,19.7526042 47.625,20.125 C47.625,20.4973958 47.7610677,20.8196615 48.0332031,21.0917969 C48.3053385,21.3639323 48.6276042,21.5 49,21.5 Z M43.5,20.8125 C43.7005208,20.8125 43.8652344,20.7480469 43.9941406,20.6191406 C44.1230469,20.4902344 44.1875,20.3255208 44.1875,20.125 C44.1875,19.9244792 44.1230469,19.7597656 43.9941406,19.6308594 C43.8652344,19.5019531 43.7005208,19.4375 43.5,19.4375 C43.2994792,19.4375 43.1276042,19.5091146 42.984375,19.6523438 C42.8697917,19.7669271 42.8125,19.9244792 42.8125,20.125 C42.8125,20.3255208 42.8769531,20.4902344 43.0058594,20.6191406 C43.1347656,20.7480469 43.2994792,20.8125 43.5,20.8125 Z M54.5,20.8125 C54.7005208,20.8125 54.8652344,20.7480469 54.9941406,20.6191406 C55.1230469,20.4902344 55.1875,20.3255208 55.1875,20.125 C55.1875,19.9244792 55.1230469,19.7597656 54.9941406,19.6308594 C54.8652344,19.5019531 54.7005208,19.4375 54.5,19.4375 C54.2994792,19.4375 54.1276042,19.5091146 53.984375,19.6523438 C53.8697917,19.7669271 53.8125,19.9244792 53.8125,20.125 C53.8125,20.3255208 53.8769531,20.4902344 54.0058594,20.6191406 C54.1347656,20.7480469 54.2994792,20.8125 54.5,20.8125 Z M45.1113281,24.6796875 C45.297526,24.6796875 45.4622396,24.6152344 45.6054688,24.4863281 C45.7486979,24.3574219 45.8203125,24.1998698 45.8203125,24.0136719 C45.8203125,23.827474 45.7486979,23.6627604 45.6054688,23.5195312 C45.4622396,23.3763021 45.297526,23.3046875 45.1113281,23.3046875 C44.9251302,23.3046875 44.7604167,23.3763021 44.6171875,23.5195312 C44.5026042,23.6627604 44.4453125,23.827474 44.4453125,24.0136719 C44.4453125,24.1998698 44.5097656,24.3574219 44.6386719,24.4863281 C44.7675781,24.6152344 44.9251302,24.6796875 45.1113281,24.6796875 Z M52.8886719,24.6796875 C53.0748698,24.6796875 53.2324219,24.6152344 53.3613281,24.4863281 C53.4902344,24.3574219 53.5546875,24.1998698 53.5546875,24.0136719 C53.5546875,23.827474 53.4902344,23.6627604 53.3613281,23.5195312 C53.2324219,23.3763021 53.0748698,23.3046875 52.8886719,23.3046875 C52.702474,23.3046875 52.5377604,23.3763021 52.3945312,23.5195312 C52.2513021,23.6627604 52.1796875,23.827474 52.1796875,24.0136719 C52.1796875,24.1998698 52.2513021,24.3574219 52.3945312,24.4863281 C52.5377604,24.6152344 52.702474,24.6796875 52.8886719,24.6796875 Z" id=""></path>
            </g>
        </g>
    </g>
</svg>