<?xml version="1.0" encoding="UTF-8"?>
<svg width="18px" height="18px" viewBox="0 0 18 18" version="1.1" xmlns="http://www.w3.org/2000/svg" xmlns:xlink="http://www.w3.org/1999/xlink">
    <title> copy</title>
    <g id="POS" stroke="none" stroke-width="1" fill="none" fill-rule="evenodd">
        <g id="POS-/-Sidenav" transform="translate(-17.000000, -381.000000)" fill="#7CE7AC" fill-rule="nonzero">
            <g id="Dashboard" transform="translate(17.000000, 373.000000)">
                <path d="M9,25.375 C11.2630208,25.375 13.203776,24.5657552 14.8222656,22.9472656 C16.4407552,21.328776 17.25,19.3880208 17.25,17.125 C17.25,14.8619792 16.4407552,12.921224 14.8222656,11.3027344 C13.203776,9.68424479 11.2630208,8.875 9,8.875 C6.73697917,8.875 4.7890625,9.69140625 3.15625,11.3242188 C1.55208333,12.9283854 0.75,14.8619792 0.75,17.125 C0.75,19.3880208 1.55924479,21.328776 3.17773438,22.9472656 C4.79622396,24.5657552 6.73697917,25.375 9,25.375 Z M9,24 C7.109375,24 5.49088542,23.3268229 4.14453125,21.9804688 C2.79817708,20.6341146 2.125,19.015625 2.125,17.125 C2.125,15.234375 2.79817708,13.6158854 4.14453125,12.2695312 C5.49088542,10.9231771 7.109375,10.25 9,10.25 C10.890625,10.25 12.5091146,10.9231771 13.8554688,12.2695312 C15.2018229,13.6158854 15.875,15.234375 15.875,17.125 C15.875,19.015625 15.2018229,20.6341146 13.8554688,21.9804688 C12.5091146,23.3268229 10.890625,24 9,24 Z M9,12.3125 C9.20052083,12.3125 9.36523438,12.2480469 9.49414062,12.1191406 C9.62304688,11.9902344 9.6875,11.8255208 9.6875,11.625 C9.6875,11.4244792 9.62304688,11.2597656 9.49414062,11.1308594 C9.36523438,11.0019531 9.20052083,10.9375 9,10.9375 C8.79947917,10.9375 8.62760417,11.0091146 8.484375,11.1523438 C8.36979167,11.2669271 8.3125,11.4244792 8.3125,11.625 C8.3125,11.8255208 8.37695312,11.9902344 8.50585938,12.1191406 C8.63476562,12.2480469 8.79947917,12.3125 9,12.3125 Z M5.11132812,13.9453125 C5.29752604,13.9453125 5.46223958,13.8736979 5.60546875,13.7304688 C5.74869792,13.5872396 5.8203125,13.422526 5.8203125,13.2363281 C5.8203125,13.0501302 5.74869792,12.8925781 5.60546875,12.7636719 C5.46223958,12.6347656 5.29752604,12.5703125 5.11132812,12.5703125 C4.92513021,12.5703125 4.76041667,12.6419271 4.6171875,12.7851562 C4.50260417,12.8997396 4.4453125,13.0501302 4.4453125,13.2363281 C4.4453125,13.422526 4.50976562,13.5872396 4.63867188,13.7304688 C4.76757812,13.8736979 4.92513021,13.9453125 5.11132812,13.9453125 Z M9,18.5 C9.37239583,18.5 9.69466146,18.3639323 9.96679688,18.0917969 C10.2389323,17.8196615 10.375,17.4973958 10.375,17.125 C10.375,17.0104167 10.3606771,16.8958333 10.3320312,16.78125 L10.3320312,16.78125 L13.3828125,13.7304688 L12.3945312,12.7421875 L9.34375,15.7929688 C9.22916667,15.7643229 9.11458333,15.75 9,15.75 C8.62760417,15.75 8.30533854,15.8860677 8.03320312,16.1582031 C7.76106771,16.4303385 7.625,16.7526042 7.625,17.125 C7.625,17.4973958 7.76106771,17.8196615 8.03320312,18.0917969 C8.30533854,18.3639323 8.62760417,18.5 9,18.5 Z M3.5,17.8125 C3.70052083,17.8125 3.86523438,17.7480469 3.99414062,17.6191406 C4.12304688,17.4902344 4.1875,17.3255208 4.1875,17.125 C4.1875,16.9244792 4.12304688,16.7597656 3.99414062,16.6308594 C3.86523438,16.5019531 3.70052083,16.4375 3.5,16.4375 C3.29947917,16.4375 3.12760417,16.5091146 2.984375,16.6523438 C2.86979167,16.7669271 2.8125,16.9244792 2.8125,17.125 C2.8125,17.3255208 2.87695312,17.4902344 3.00585938,17.6191406 C3.13476562,17.7480469 3.29947917,17.8125 3.5,17.8125 Z M14.5,17.8125 C14.7005208,17.8125 14.8652344,17.7480469 14.9941406,17.6191406 C15.1230469,17.4902344 15.1875,17.3255208 15.1875,17.125 C15.1875,16.9244792 15.1230469,16.7597656 14.9941406,16.6308594 C14.8652344,16.5019531 14.7005208,16.4375 14.5,16.4375 C14.2994792,16.4375 14.1276042,16.5091146 13.984375,16.6523438 C13.8697917,16.7669271 13.8125,16.9244792 13.8125,17.125 C13.8125,17.3255208 13.8769531,17.4902344 14.0058594,17.6191406 C14.1347656,17.7480469 14.2994792,17.8125 14.5,17.8125 Z M5.11132812,21.6796875 C5.29752604,21.6796875 5.46223958,21.6152344 5.60546875,21.4863281 C5.74869792,21.3574219 5.8203125,21.1998698 5.8203125,21.0136719 C5.8203125,20.827474 5.74869792,20.6627604 5.60546875,20.5195312 C5.46223958,20.3763021 5.29752604,20.3046875 5.11132812,20.3046875 C4.92513021,20.3046875 4.76041667,20.3763021 4.6171875,20.5195312 C4.50260417,20.6627604 4.4453125,20.827474 4.4453125,21.0136719 C4.4453125,21.1998698 4.50976562,21.3574219 4.63867188,21.4863281 C4.76757812,21.6152344 4.92513021,21.6796875 5.11132812,21.6796875 Z M12.8886719,21.6796875 C13.0748698,21.6796875 13.2324219,21.6152344 13.3613281,21.4863281 C13.4902344,21.3574219 13.5546875,21.1998698 13.5546875,21.0136719 C13.5546875,20.827474 13.4902344,20.6627604 13.3613281,20.5195312 C13.2324219,20.3763021 13.0748698,20.3046875 12.8886719,20.3046875 C12.702474,20.3046875 12.5377604,20.3763021 12.3945312,20.5195312 C12.2513021,20.6627604 12.1796875,20.827474 12.1796875,21.0136719 C12.1796875,21.1998698 12.2513021,21.3574219 12.3945312,21.4863281 C12.5377604,21.6152344 12.702474,21.6796875 12.8886719,21.6796875 Z" id="-copy"></path>
            </g>
        </g>
    </g>
</svg>