<?xml version="1.0" encoding="UTF-8"?>
<svg width="14px" height="13px" viewBox="0 0 14 13" version="1.1" xmlns="http://www.w3.org/2000/svg" xmlns:xlink="http://www.w3.org/1999/xlink">
    <title></title>
    <g id="POS" stroke="none" stroke-width="1" fill="none" fill-rule="evenodd">
        <g id="POS-/-Checkout-(LBP)-/-Card-Complete" transform="translate(-756.000000, -384.000000)" fill="#FFFFFF" fill-rule="nonzero">
            <g id="Group-2" transform="translate(756.000000, 380.000000)">
                <path d="M11,7.056 L11,4.4 L3,4.4 L3,7.056 L11,7.056 Z M11,16.4 L11,13.744 L13.656,13.744 L13.656,9.744 C13.656,9.392 13.5653333,9.06133333 13.384,8.752 C13.2026667,8.44266667 12.9573333,8.19733333 12.648,8.016 C12.3386667,7.83466667 12.008,7.744 11.656,7.744 L11.656,7.744 L2.344,7.744 C1.992,7.744 1.66133333,7.83466667 1.352,8.016 C1.04266667,8.19733333 0.797333333,8.44266667 0.616,8.752 C0.434666667,9.06133333 0.344,9.392 0.344,9.744 L0.344,9.744 L0.344,13.744 L3,13.744 L3,16.4 L11,16.4 Z M11.656,10.4 C11.4746667,10.4 11.32,10.3386667 11.192,10.216 C11.064,10.0933333 11,9.936 11,9.744 C11,9.552 11.0613333,9.38933333 11.184,9.256 C11.3066667,9.12266667 11.464,9.056 11.656,9.056 C11.848,9.056 12.0106667,9.12533333 12.144,9.264 C12.2773333,9.40266667 12.344,9.56266667 12.344,9.744 C12.344,9.92533333 12.2773333,10.08 12.144,10.208 C12.0106667,10.336 11.848,10.4 11.656,10.4 Z M9.656,15.056 L4.344,15.056 L4.344,11.744 L9.656,11.744 L9.656,15.056 Z" id=""></path>
            </g>
        </g>
    </g>
</svg>