<?xml version="1.0" encoding="UTF-8"?>
<svg width="12px" height="11px" viewBox="0 0 12 11" version="1.1" xmlns="http://www.w3.org/2000/svg" xmlns:xlink="http://www.w3.org/1999/xlink">
    <title></title>
    <g id="Symbols" stroke="none" stroke-width="1" fill="none" fill-rule="evenodd">
        <g id="Popover-/-Paid-partial-Copy-2" transform="translate(-14.000000, -12.000000)" fill="#FFFFFF" fill-rule="nonzero">
            <path d="M23.4125,14.6875 L23.4125,12.5 L16.4125,12.5 L16.4125,14.6875 L23.4125,14.6875 Z M23.4125,23 L23.4125,20.6757812 L25.6,20.6757812 L25.6,16.875 C25.6,16.4010417 25.4268229,15.9908854 25.0804687,15.6445312 C24.7341146,15.2981771 24.3239583,15.125 23.85,15.125 L23.85,15.125 L15.975,15.125 C15.5010417,15.125 15.0908854,15.2981771 14.7445312,15.6445312 C14.3981771,15.9908854 14.225,16.4010417 14.225,16.875 L14.225,16.875 L14.225,20.6757812 L16.4125,20.6757812 L16.4125,23 L23.4125,23 Z M22.5375,22.125 L17.2875,22.125 L17.2875,18.625 L22.5375,18.625 L22.5375,22.125 Z" id=""></path>
        </g>
    </g>
</svg>