<?xml version="1.0" encoding="UTF-8"?>
<svg width="18px" height="16px" viewBox="0 0 18 16" version="1.1" xmlns="http://www.w3.org/2000/svg" xmlns:xlink="http://www.w3.org/1999/xlink">
    <title> copy</title>
    <g id="POS" stroke="none" stroke-width="1" fill="none" fill-rule="evenodd">
        <g id="POS-/-Sidenav" transform="translate(-17.000000, -422.000000)" fill="#7CE7AC" fill-rule="nonzero">
            <g id="Tasks-Copy" transform="translate(17.000000, 422.000000)">
                <path d="M2.8125,4.9453125 L3.328125,4.515625 L6.078125,1.765625 L5.046875,0.734375 L2.8125,3.01171875 L1.953125,2.109375 L0.921875,3.140625 L2.296875,4.515625 L2.8125,4.9453125 Z M17.25,3.3125 L17.25,1.9375 L8.3125,1.9375 L8.3125,3.3125 L17.25,3.3125 Z M2.8125,10.4453125 L3.328125,10.015625 L6.078125,7.265625 L5.046875,6.234375 L2.8125,8.51171875 L1.953125,7.609375 L0.921875,8.640625 L2.296875,10.015625 L2.8125,10.4453125 Z M17.25,8.8125 L17.25,7.4375 L8.3125,7.4375 L8.3125,8.8125 L17.25,8.8125 Z M2.8125,15.9453125 L3.328125,15.515625 L6.078125,12.765625 L5.046875,11.734375 L2.8125,14.0117188 L1.953125,13.109375 L0.921875,14.140625 L2.296875,15.515625 L2.8125,15.9453125 Z M17.25,14.3125 L17.25,12.9375 L8.3125,12.9375 L8.3125,14.3125 L17.25,14.3125 Z" id="-copy"></path>
            </g>
        </g>
    </g>
</svg>