<?xml version="1.0" encoding="UTF-8"?>
<svg width="18px" height="16px" viewBox="0 0 18 16" version="1.1" xmlns="http://www.w3.org/2000/svg" xmlns:xlink="http://www.w3.org/1999/xlink">
    <title></title>
    <g id="POS" stroke="none" stroke-width="1" fill="none" fill-rule="evenodd">
        <g id="POS-/-Sidenav" transform="translate(-57.000000, -425.000000)" fill="#778CA2" fill-rule="nonzero">
            <g id="Tasks-Copy" transform="translate(17.000000, 422.000000)">
                <path d="M42.8125,7.9453125 L43.328125,7.515625 L46.078125,4.765625 L45.046875,3.734375 L42.8125,6.01171875 L41.953125,5.109375 L40.921875,6.140625 L42.296875,7.515625 L42.8125,7.9453125 Z M57.25,6.3125 L57.25,4.9375 L48.3125,4.9375 L48.3125,6.3125 L57.25,6.3125 Z M42.8125,13.4453125 L43.328125,13.015625 L46.078125,10.265625 L45.046875,9.234375 L42.8125,11.5117188 L41.953125,10.609375 L40.921875,11.640625 L42.296875,13.015625 L42.8125,13.4453125 Z M57.25,11.8125 L57.25,10.4375 L48.3125,10.4375 L48.3125,11.8125 L57.25,11.8125 Z M42.8125,18.9453125 L43.328125,18.515625 L46.078125,15.765625 L45.046875,14.734375 L42.8125,17.0117188 L41.953125,16.109375 L40.921875,17.140625 L42.296875,18.515625 L42.8125,18.9453125 Z M57.25,17.3125 L57.25,15.9375 L48.3125,15.9375 L48.3125,17.3125 L57.25,17.3125 Z" id=""></path>
            </g>
        </g>
    </g>
</svg>