<?xml version="1.0" encoding="UTF-8"?>
<svg width="11px" height="10px" viewBox="0 0 11 10" version="1.1" xmlns="http://www.w3.org/2000/svg" xmlns:xlink="http://www.w3.org/1999/xlink">
    <title></title>
    <g id="POS" stroke="none" stroke-width="1" fill="none" fill-rule="evenodd">
        <g id="Purchases-/-Popover" transform="translate(-864.000000, -45.000000)" fill="#7CE7AC" fill-rule="nonzero">
            <g id="Group-2" transform="translate(854.000000, 35.000000)">
                <path d="M20.28125,19.125 C20.4270833,19.125 20.5,19.0520833 20.5,18.90625 L20.5,18.90625 L20.5,12.34375 C20.5,12.1979167 20.4270833,12.125 20.28125,12.125 L20.28125,12.125 L13.5,12.125 L13.5,10.375 L10,13 L13.5,15.625 L13.5,13.875 L18.75,13.875 L18.75,17.375 L11.96875,17.375 C11.8229167,17.375 11.75,17.4479167 11.75,17.59375 L11.75,17.59375 L11.75,18.90625 C11.75,19.0520833 11.8229167,19.125 11.96875,19.125 L11.96875,19.125 L20.28125,19.125 Z" id=""></path>
            </g>
        </g>
    </g>
</svg>