<?xml version="1.0" encoding="UTF-8"?>
<svg width="15px" height="16px" viewBox="0 0 15 16" version="1.1" xmlns="http://www.w3.org/2000/svg" xmlns:xlink="http://www.w3.org/1999/xlink">
    <title></title>
    <g id="POS" stroke="none" stroke-width="1" fill="none" fill-rule="evenodd">
        <g id="Settings-/-General-(Auto-lock)" transform="translate(-963.000000, -122.000000)" fill="#7CE7AC" fill-rule="nonzero">
            <g id="Group-2" transform="translate(288.000000, 70.000000)">
                <g id="Group-2-Copy-4" transform="translate(20.000000, 50.000000)">
                    <path d="M662.6875,17.5625 C664.703125,17.5625 666.425781,16.8476562 667.855469,15.4179688 C669.285156,13.9882812 670,12.265625 670,10.25 L670,10.25 L668.523438,10.25 C668.523438,11.8671875 667.955078,13.2441406 666.818359,14.3808594 C665.681641,15.5175781 664.304688,16.0859375 662.6875,16.0859375 C661.070312,16.0859375 659.693359,15.5175781 658.556641,14.3808594 C657.419922,13.2441406 656.851562,11.8671875 656.851562,10.25 C656.851562,8.6328125 657.419922,7.25585938 658.556641,6.11914062 C659.693359,4.98242188 661.070312,4.4140625 662.6875,4.4140625 C663.25,4.4140625 663.789062,4.484375 664.304688,4.625 L664.304688,4.625 L665.429688,3.5 C664.539062,3.125 663.625,2.9375 662.6875,2.9375 C660.671875,2.9375 658.949219,3.65234375 657.519531,5.08203125 C656.089844,6.51171875 655.375,8.234375 655.375,10.25 C655.375,12.265625 656.089844,13.9882812 657.519531,15.4179688 C658.949219,16.8476562 660.671875,17.5625 662.6875,17.5625 Z M661.949219,13.1679688 L669.261719,5.85546875 L668.242188,4.8359375 L661.949219,11.09375 L659.699219,8.84375 L658.679688,9.8984375 L661.949219,13.1679688 Z" id=""></path>
                </g>
            </g>
        </g>
    </g>
</svg>