<?xml version="1.0" encoding="UTF-8"?>
<svg width="17px" height="19px" viewBox="0 0 17 19" version="1.1" xmlns="http://www.w3.org/2000/svg" xmlns:xlink="http://www.w3.org/1999/xlink">
    <title> copy</title>
    <g id="POS" stroke="none" stroke-width="1" fill="none" fill-rule="evenodd">
        <g id="POS-/-Sidenav" transform="translate(-17.000000, -541.000000)" fill="#7CE7AC" fill-rule="nonzero">
            <g id="UI-Kit" transform="translate(17.000000, 541.000000)">
                <path d="M9.6875,18.0625 C10.4609375,18.0625 11.1126302,17.797526 11.6425781,17.2675781 C12.172526,16.7376302 12.4375,16.0859375 12.4375,15.3125 L12.4375,15.3125 L16.5625,15.3125 L16.5625,10.5 L15.1875,10.5 C14.7864583,10.5 14.4570312,10.3710938 14.1992188,10.1132812 C13.9414062,9.85546875 13.8125,9.52604167 13.8125,9.125 C13.8125,8.72395833 13.9414062,8.39453125 14.1992188,8.13671875 C14.4570312,7.87890625 14.7864583,7.75 15.1875,7.75 L15.1875,7.75 L16.5625,7.75 L16.5625,2.9375 L12.4375,2.9375 C12.4375,2.1640625 12.172526,1.51236979 11.6425781,0.982421875 C11.1126302,0.452473958 10.4609375,0.1875 9.6875,0.1875 C8.9140625,0.1875 8.25520833,0.459635417 7.7109375,1.00390625 C7.1953125,1.51953125 6.9375,2.1640625 6.9375,2.9375 L6.9375,2.9375 L2.8125,2.9375 L2.8125,6.375 C2.0390625,6.375 1.38736979,6.63997396 0.857421875,7.16992188 C0.327473958,7.69986979 0.0625,8.3515625 0.0625,9.125 C0.0625,9.8984375 0.327473958,10.5501302 0.857421875,11.0800781 C1.38736979,11.610026 2.0390625,11.875 2.8125,11.875 L2.8125,11.875 L2.8125,15.3125 L6.9375,15.3125 C6.9375,16.0859375 7.20247396,16.7376302 7.73242188,17.2675781 C8.26236979,17.797526 8.9140625,18.0625 9.6875,18.0625 Z M9.6875,16.6875 C9.28645833,16.6875 8.95703125,16.5585938 8.69921875,16.3007812 C8.44140625,16.0429688 8.3125,15.7135417 8.3125,15.3125 L8.3125,15.3125 L8.3125,13.9375 L4.1875,13.9375 L4.1875,10.5 L2.8125,10.5 C2.41145833,10.5 2.08203125,10.3710938 1.82421875,10.1132812 C1.56640625,9.85546875 1.4375,9.52604167 1.4375,9.125 C1.4375,8.72395833 1.56640625,8.39453125 1.82421875,8.13671875 C2.08203125,7.87890625 2.41145833,7.75 2.8125,7.75 L2.8125,7.75 L4.1875,7.75 L4.1875,4.3125 L8.3125,4.3125 L8.3125,2.9375 C8.3125,2.53645833 8.44140625,2.20703125 8.69921875,1.94921875 C8.95703125,1.69140625 9.28645833,1.5625 9.6875,1.5625 C10.0885417,1.5625 10.4179688,1.69140625 10.6757812,1.94921875 C10.9335938,2.20703125 11.0625,2.53645833 11.0625,2.9375 L11.0625,2.9375 L11.0625,4.3125 L15.1875,4.3125 L15.1875,6.375 C14.4140625,6.375 13.7623698,6.63997396 13.2324219,7.16992188 C12.702474,7.69986979 12.4375,8.3515625 12.4375,9.125 C12.4375,9.8984375 12.702474,10.5501302 13.2324219,11.0800781 C13.7623698,11.610026 14.4140625,11.875 15.1875,11.875 L15.1875,11.875 L15.1875,13.9375 L11.0625,13.9375 L11.0625,15.3125 C11.0625,15.7135417 10.9335938,16.0429688 10.6757812,16.3007812 C10.4179688,16.5585938 10.0885417,16.6875 9.6875,16.6875 Z" id="-copy"></path>
            </g>
        </g>
    </g>
</svg>