<?xml version="1.0" encoding="UTF-8"?>
<svg width="17px" height="19px" viewBox="0 0 17 19" version="1.1" xmlns="http://www.w3.org/2000/svg" xmlns:xlink="http://www.w3.org/1999/xlink">
    <title></title>
    <g id="POS" stroke="none" stroke-width="1" fill="none" fill-rule="evenodd">
        <g id="POS-/-Sidenav" transform="translate(-57.000000, -544.000000)" fill="#778CA2" fill-rule="nonzero">
            <g id="UI-Kit" transform="translate(17.000000, 541.000000)">
                <path d="M49.6875,21.0625 C50.4609375,21.0625 51.1126302,20.797526 51.6425781,20.2675781 C52.172526,19.7376302 52.4375,19.0859375 52.4375,18.3125 L52.4375,18.3125 L56.5625,18.3125 L56.5625,13.5 L55.1875,13.5 C54.7864583,13.5 54.4570312,13.3710938 54.1992188,13.1132812 C53.9414062,12.8554688 53.8125,12.5260417 53.8125,12.125 C53.8125,11.7239583 53.9414062,11.3945312 54.1992188,11.1367188 C54.4570312,10.8789062 54.7864583,10.75 55.1875,10.75 L55.1875,10.75 L56.5625,10.75 L56.5625,5.9375 L52.4375,5.9375 C52.4375,5.1640625 52.172526,4.51236979 51.6425781,3.98242188 C51.1126302,3.45247396 50.4609375,3.1875 49.6875,3.1875 C48.9140625,3.1875 48.2552083,3.45963542 47.7109375,4.00390625 C47.1953125,4.51953125 46.9375,5.1640625 46.9375,5.9375 L46.9375,5.9375 L42.8125,5.9375 L42.8125,9.375 C42.0390625,9.375 41.3873698,9.63997396 40.8574219,10.1699219 C40.327474,10.6998698 40.0625,11.3515625 40.0625,12.125 C40.0625,12.8984375 40.327474,13.5501302 40.8574219,14.0800781 C41.3873698,14.610026 42.0390625,14.875 42.8125,14.875 L42.8125,14.875 L42.8125,18.3125 L46.9375,18.3125 C46.9375,19.0859375 47.202474,19.7376302 47.7324219,20.2675781 C48.2623698,20.797526 48.9140625,21.0625 49.6875,21.0625 Z M49.6875,19.6875 C49.2864583,19.6875 48.9570312,19.5585938 48.6992188,19.3007812 C48.4414062,19.0429688 48.3125,18.7135417 48.3125,18.3125 L48.3125,18.3125 L48.3125,16.9375 L44.1875,16.9375 L44.1875,13.5 L42.8125,13.5 C42.4114583,13.5 42.0820312,13.3710938 41.8242188,13.1132812 C41.5664062,12.8554688 41.4375,12.5260417 41.4375,12.125 C41.4375,11.7239583 41.5664062,11.3945312 41.8242188,11.1367188 C42.0820312,10.8789062 42.4114583,10.75 42.8125,10.75 L42.8125,10.75 L44.1875,10.75 L44.1875,7.3125 L48.3125,7.3125 L48.3125,5.9375 C48.3125,5.53645833 48.4414062,5.20703125 48.6992188,4.94921875 C48.9570312,4.69140625 49.2864583,4.5625 49.6875,4.5625 C50.0885417,4.5625 50.4179688,4.69140625 50.6757812,4.94921875 C50.9335938,5.20703125 51.0625,5.53645833 51.0625,5.9375 L51.0625,5.9375 L51.0625,7.3125 L55.1875,7.3125 L55.1875,9.375 C54.4140625,9.375 53.7623698,9.63997396 53.2324219,10.1699219 C52.702474,10.6998698 52.4375,11.3515625 52.4375,12.125 C52.4375,12.8984375 52.702474,13.5501302 53.2324219,14.0800781 C53.7623698,14.610026 54.4140625,14.875 55.1875,14.875 L55.1875,14.875 L55.1875,16.9375 L51.0625,16.9375 L51.0625,18.3125 C51.0625,18.7135417 50.9335938,19.0429688 50.6757812,19.3007812 C50.4179688,19.5585938 50.0885417,19.6875 49.6875,19.6875 Z" id=""></path>
            </g>
        </g>
    </g>
</svg>