<?xml version="1.0" encoding="UTF-8"?>
<svg width="28px" height="28px" viewBox="0 0 28 28" version="1.1" xmlns="http://www.w3.org/2000/svg" xmlns:xlink="http://www.w3.org/1999/xlink">
    <title></title>
    <g id="POS" stroke="none" stroke-width="1" fill="none" fill-rule="evenodd">
        <g id="POS-/-Split-sale-/-Active" transform="translate(-962.000000, -395.000000)" fill="#7CE7AC" fill-rule="nonzero">
            <path d="M976,422.112 C978.432,422.112 980.682667,421.504 982.752,420.288 C984.757333,419.136 986.336,417.557333 987.488,415.552 C988.704,413.482667 989.312,411.232 989.312,408.8 C989.312,406.368 988.704,404.117333 987.488,402.048 C986.336,400.042667 984.757333,398.464 982.752,397.312 C980.682667,396.096 978.432,395.488 976,395.488 C973.589333,395.488 971.349333,396.096 969.28,397.312 C967.274667,398.485333 965.685333,400.074667 964.512,402.08 C963.296,404.149333 962.688,406.389333 962.688,408.8 C962.688,411.210667 963.296,413.450667 964.512,415.52 C965.664,417.525333 967.242667,419.114667 969.248,420.288 C971.317333,421.504 973.568,422.112 976,422.112 Z M976,419.488 C974.08,419.488 972.288,418.997333 970.624,418.016 C969.002667,417.077333 967.722667,415.797333 966.784,414.176 C965.802667,412.512 965.312,410.72 965.312,408.8 C965.312,406.88 965.802667,405.088 966.784,403.424 C967.722667,401.802667 969.002667,400.522667 970.624,399.584 C972.288,398.602667 974.08,398.112 976,398.112 C977.92,398.112 979.712,398.602667 981.376,399.584 C982.997333,400.522667 984.277333,401.802667 985.216,403.424 C986.197333,405.088 986.688,406.88 986.688,408.8 C986.688,410.72 986.197333,412.512 985.216,414.176 C984.277333,415.797333 982.997333,417.077333 981.376,418.016 C979.712,418.997333 977.92,419.488 976,419.488 Z M977.312,415.488 L977.312,410.112 L982.688,410.112 L982.688,407.488 L977.312,407.488 L977.312,402.112 L974.688,402.112 L974.688,407.488 L969.312,407.488 L969.312,410.112 L974.688,410.112 L974.688,415.488 L977.312,415.488 Z" id=""></path>
        </g>
    </g>
</svg>