<?xml version="1.0" encoding="UTF-8"?>
<svg width="16px" height="16px" viewBox="0 0 16 16" version="1.1" xmlns="http://www.w3.org/2000/svg" xmlns:xlink="http://www.w3.org/1999/xlink">
    <title></title>
    <g id="POS" stroke="none" stroke-width="1" fill="none" fill-rule="evenodd">
        <g id="POS-/-Checkout-(LBP)-/-Cash" transform="translate(-606.000000, -472.000000)" fill="#FFFFFF" fill-rule="nonzero">
            <g id="Group-Copy" transform="translate(606.000000, 470.000000)">
                <path d="M7.09822275,17.4821446 L15.1964467,9.3749921 C15.6339472,8.93749158 15.6339472,8.20534785 15.1964467,7.75891875 L14.0714453,6.64284599 C13.4018017,7.31248964 12.3125147,7.31248964 11.642871,6.64284599 C10.9732274,5.97320233 10.9732274,4.88391532 11.642871,4.21427166 L10.5267983,3.09819891 C10.0803692,2.6517698 9.34822543,2.6517698 8.91072491,3.09819891 L0.812500969,11.1874943 C0.366071865,11.6339234 0.366071865,12.3660671 0.812500969,12.8035676 L1.92857373,13.928569 C2.59821738,13.2589253 3.6875044,13.2589253 4.35714805,13.928569 C5.02679171,14.5982126 5.02679171,15.6874996 4.35714805,16.3571433 L5.48214939,17.4821446 C5.91964991,17.9196451 6.65179364,17.9196451 7.09822275,17.4821446 Z M6.85715103,15.2232134 C6.70536514,15.2232134 6.56250782,15.1696419 6.45536484,15.0624989 L3.22321813,11.8303522 C3.00000358,11.6071376 3.00000358,11.2499943 3.22321813,11.0267798 L8.74108185,5.50891607 C8.95536782,5.2946301 9.33036827,5.2946301 9.54465424,5.50891607 L12.7768009,8.74106278 C13.0000155,8.96427733 13.0000155,9.32142061 12.7768009,9.54463516 L7.25893722,15.0624989 C7.15179424,15.1696419 7.00893693,15.2232134 6.85715103,15.2232134 Z M6.85715103,14.2499979 L11.9643,9.14284897 L9.14286804,6.32141703 L4.0357191,11.428566 L6.85715103,14.2499979 Z" id=""></path>
            </g>
        </g>
    </g>
</svg>