<?xml version="1.0" encoding="UTF-8"?>
<svg width="12px" height="12px" viewBox="0 0 12 12" version="1.1" xmlns="http://www.w3.org/2000/svg" xmlns:xlink="http://www.w3.org/1999/xlink">
    <title></title>
    <g id="Symbols" stroke="none" stroke-width="1" fill="none" fill-rule="evenodd">
        <g id="Popover-/-Paid-partial-Copy-2" transform="translate(-14.000000, -82.000000)" fill="#FFFFFF" fill-rule="nonzero">
            <path d="M14.0885,93.924 L16.4125,91.6 L24.5885,91.6 C24.9058333,91.6 25.1765,91.4833333 25.4005,91.25 C25.6245,91.0166667 25.7365,90.7413333 25.7365,90.424 L25.7365,90.424 L25.7365,83.424 C25.7365,83.1066667 25.6245,82.836 25.4005,82.612 C25.1765,82.388 24.9058333,82.276 24.5885,82.276 L24.5885,82.276 L15.2365,82.276 C14.9191667,82.276 14.6485,82.388 14.4245,82.612 C14.2005,82.836 14.0885,83.1066667 14.0885,83.424 L14.0885,83.424 L14.0885,93.924 Z M22.8385,87.526 L21.6625,87.526 L21.6625,86.35 L22.8385,86.35 L22.8385,87.526 Z M20.4865,87.526 L19.3385,87.526 L19.3385,86.35 L20.4865,86.35 L20.4865,87.526 Z M18.1625,87.526 L16.9865,87.526 L16.9865,86.35 L18.1625,86.35 L18.1625,87.526 Z" id=""></path>
        </g>
    </g>
</svg>