<?xml version="1.0" encoding="UTF-8"?>
<svg width="12px" height="12px" viewBox="0 0 12 12" version="1.1" xmlns="http://www.w3.org/2000/svg" xmlns:xlink="http://www.w3.org/1999/xlink">
    <title></title>
    <g id="POS" stroke="none" stroke-width="1" fill="none" fill-rule="evenodd">
        <g id="Purchases-/-Popover" transform="translate(-865.000000, -134.000000)" fill="#7CE7AC" fill-rule="nonzero">
            <g id="Group-2" transform="translate(854.000000, 35.000000)">
                <path d="M11.176,110.924 L13.5,108.6 L21.676,108.6 C21.9933333,108.6 22.264,108.483333 22.488,108.25 C22.712,108.016667 22.824,107.741333 22.824,107.424 L22.824,107.424 L22.824,100.424 C22.824,100.106667 22.712,99.836 22.488,99.612 C22.264,99.388 21.9933333,99.276 21.676,99.276 L21.676,99.276 L12.324,99.276 C12.0066667,99.276 11.736,99.388 11.512,99.612 C11.288,99.836 11.176,100.106667 11.176,100.424 L11.176,100.424 L11.176,110.924 Z M20.5,102.776 L13.5,102.776 L13.5,101.6 L20.5,101.6 L20.5,102.776 Z M20.5,104.526 L13.5,104.526 L13.5,103.35 L20.5,103.35 L20.5,104.526 Z M20.5,106.276 L13.5,106.276 L13.5,105.1 L20.5,105.1 L20.5,106.276 Z" id=""></path>
            </g>
        </g>
    </g>
</svg>